<?xml version="1.0" encoding="UTF-8"?>
<svg id="Layer_1" xmlns="http://www.w3.org/2000/svg" version="1.1" viewBox="0 0 2000 480">
  <!-- Generator: Adobe Illustrator 29.7.1, SVG Export Plug-In . SVG Version: 2.1.1 Build 8)  -->
  <path d="M159.5,461.99h-48.47c-4.04,0-6.06-1.59-6.06-4.77,0-1.52.61-3.41,1.82-5.68l38.77-71.35L105.38,117.48c-.14-.45-.2-1.14-.2-2.04,0-2.57.77-4.62,2.32-6.14,1.55-1.51,3.6-2.27,6.16-2.27h49.48c4.71,0,7.34,2.43,7.88,7.27l20.4,177.93,87.65-177.71c2.15-5,5.72-7.5,10.7-7.5h53.72c1.88,0,3.36.45,4.44,1.36,1.08.91,1.62,2.12,1.62,3.64s-.54,3.33-1.62,5.45l-177.72,337.23c-2.69,4.85-6.26,7.27-10.7,7.27Z"/>
  <path d="M389.73,371.54c-18.04-11.06-31.98-26.13-41.8-45.22-9.83-19.09-14.74-40.14-14.74-63.17,0-25.3,6.06-50.52,18.18-75.67,12.12-25.15,29.18-45.83,51.19-62.04,22.01-16.21,47.02-24.31,75.03-24.31,23.69,0,44.53,5.57,62.5,16.7,17.97,11.13,31.84,26.29,41.6,45.45,9.76,19.17,14.64,40.41,14.64,63.74,0,24.85-6.13,49.81-18.38,74.88-12.25,25.08-29.38,45.72-51.4,61.92-22.01,16.21-46.82,24.32-74.42,24.32-23.56,0-44.36-5.53-62.4-16.59ZM496.66,308.14c11.78-8.79,20.9-20,27.36-33.63,6.46-13.63,9.69-27.57,9.69-41.81,0-11.97-2.8-22.87-8.38-32.72-5.59-9.85-13.03-17.61-22.32-23.29-9.29-5.68-19.32-8.52-30.09-8.52-14.94,0-28.24,4.36-39.89,13.07-11.65,8.71-20.7,19.92-27.16,33.63-6.46,13.71-9.69,27.84-9.69,42.38,0,11.67,2.76,22.38,8.28,32.16,5.52,9.77,12.89,17.54,22.11,23.29,9.22,5.76,19.15,8.63,29.79,8.63,15.08,0,28.51-4.39,40.29-13.18Z"/>
  <path d="M836.65,107.03h45.84c4.44,0,6.66,2.05,6.66,6.14,0,.45-.14,1.44-.4,2.95l-48.27,256.11c-1.21,6.06-4.51,9.09-9.9,9.09h-35.54c-4.31,0-6.8-2.5-7.47-7.5l-2.63-24.32c-11.31,10.61-24.64,19.32-39.99,26.13-15.35,6.82-29.62,10.23-42.81,10.23-16.56,0-30.77-3.52-42.61-10.57-11.85-7.04-20.9-17.16-27.16-30.34-6.26-13.18-9.39-28.78-9.39-46.81,0-10.75,1.08-21.89,3.23-33.41l28.07-148.62c1.21-6.06,4.51-9.09,9.9-9.09h46.05c4.44,0,6.66,2.05,6.66,6.14,0,.45-.14,1.44-.4,2.95l-26.66,141.12c-1.21,6.52-1.82,12.65-1.82,18.41,0,14.24,3.64,25.49,10.91,33.75,7.27,8.26,17.37,12.38,30.29,12.38,10.63,0,21-2.84,31.1-8.52,10.1-5.68,18.68-13.29,25.75-22.84,7.07-9.54,11.61-19.77,13.63-30.68l27.06-143.62c1.21-6.06,4.51-9.09,9.9-9.09Z"/>
  <path d="M1138.16,107.03h34.54c4.44,0,6.66,2.05,6.66,6.14,0,.45-.14,1.44-.4,2.95l-48.47,256.11c-1.21,6.06-4.44,9.09-9.69,9.09h-35.75c-4.44,0-7-2.5-7.67-7.5l-.4-18.18c-10.5,10.15-21.51,17.95-33.02,23.41s-24.27,8.18-38.27,8.18c-19.79,0-37.43-4.89-52.91-14.66-15.48-9.77-27.57-23.21-36.25-40.34-8.68-17.12-13.03-36.36-13.03-57.72,0-10.45.94-20.45,2.83-30,4.98-26.06,14.77-49.92,29.38-71.58,14.61-21.66,32.28-38.82,53.01-51.47,20.73-12.65,42.41-18.98,65.03-18.98,14.67,0,27.7,2.88,39.08,8.64,11.38,5.76,20.16,13.41,26.36,22.95l8.48-19.77c2.29-4.85,5.79-7.27,10.5-7.27ZM1052.23,310.75c11.11-6.44,20.56-15.34,28.37-26.7,7.81-11.36,13.13-24.24,15.96-38.63,1.08-5.45,1.62-11.36,1.62-17.73,0-11.51-2.12-21.7-6.36-30.56-4.24-8.86-10.3-15.75-18.18-20.68-7.88-4.92-17.06-7.39-27.57-7.39-12.12,0-23.63,3.33-34.53,10-10.91,6.67-20.2,15.79-27.87,27.38-7.67,11.59-12.86,24.58-15.55,38.97-1.21,6.52-1.82,12.8-1.82,18.86,0,11.21,2.05,21.02,6.16,29.43,4.11,8.41,10,14.96,17.67,19.66,7.67,4.7,16.69,7.04,27.06,7.04,12.25,0,23.93-3.22,35.04-9.66Z"/>
  <path d="M1414.94,117.25c15.82,9.85,28.2,23.41,37.16,40.68,8.95,17.27,13.43,36.59,13.43,57.95,0,9.7-.88,19.24-2.63,28.63-4.98,26.06-14.71,49.99-29.18,71.81-14.47,21.82-32.08,39.09-52.81,51.81-20.73,12.73-42.48,19.09-65.23,19.09-14.41,0-27.36-2.88-38.88-8.63-11.51-5.76-20.37-13.41-26.56-22.95l-7.67,18.18c-2.16,5-5.66,7.5-10.5,7.5h-35.54c-4.44,0-6.66-2.04-6.66-6.14,0-.45.13-1.44.4-2.95l63.82-337.46c1.21-6.06,4.44-9.09,9.69-9.09h45.64c4.58,0,6.87,2.12,6.87,6.36,0,.61-.13,1.52-.4,2.73l-17.77,93.63c9.83-8.48,19.69-14.92,29.59-19.32,9.9-4.39,21.1-6.59,33.62-6.59,19.92,0,37.8,4.92,53.62,14.77ZM1357.59,310.87c10.84-6.36,20.06-15.26,27.67-26.7,7.6-11.44,12.75-24.35,15.45-38.75,1.21-6.36,1.82-12.57,1.82-18.63,0-11.21-2.09-21.21-6.26-30-4.17-8.78-10.1-15.6-17.77-20.45-7.67-4.85-16.7-7.27-27.06-7.27-12.12,0-23.73,3.33-34.84,10-11.11,6.67-20.6,15.79-28.48,27.38-7.88,11.59-13.16,24.58-15.85,38.97-1.21,6.06-1.82,11.97-1.82,17.72,0,11.36,2.19,21.36,6.56,30,4.37,8.63,10.53,15.34,18.48,20.11,7.94,4.77,17.17,7.16,27.67,7.16,12.12,0,23.59-3.18,34.43-9.54Z"/>
  <path d="M1530.56,381.31h-45.24c-4.44,0-6.66-2.04-6.66-6.14,0-.45.13-1.44.4-2.95l63.62-337.01c.54-2.88,1.62-5.11,3.23-6.7,1.62-1.59,3.77-2.39,6.46-2.39h45.24c4.44,0,6.66,2.2,6.66,6.59,0,1.06-.07,1.9-.2,2.5l-63.61,337.01c-1.21,6.06-4.51,9.09-9.9,9.09Z"/>
  <path d="M1806.12,114.64c15.55,9.17,27.26,21.85,35.14,38.06,7.88,16.21,11.81,34.92,11.81,56.13,0,18.48-2.7,36.29-8.08,53.4-1.35,4.85-4.38,7.27-9.09,7.27h-167.22c1.75,11.06,5.59,20.76,11.51,29.09,5.92,8.33,13.09,14.74,21.51,19.2,8.41,4.47,17.13,6.7,26.15,6.7,14.67,0,28.95-4.32,42.81-12.95,1.88-1.21,3.57-1.82,5.05-1.82,2.42,0,4.44,1.59,6.06,4.77l18.18,34.77c.94,1.67,1.41,3.49,1.41,5.45,0,2.58-1.21,4.92-3.64,7.04-10.77,8.79-22.82,15.34-36.15,19.66-13.33,4.32-26.32,6.48-38.98,6.48-23.29,0-43.82-5.42-61.6-16.25-17.77-10.83-31.47-25.64-41.1-44.43-9.63-18.78-14.44-39.77-14.44-62.95,0-25.15,5.89-50.41,17.67-75.79,11.78-25.37,28.58-46.32,50.39-62.83,21.81-16.51,46.99-24.77,75.53-24.77,22.48,0,41.5,4.58,57.05,13.75ZM1792.89,212.47c0-8.78-1.95-16.97-5.86-24.54-3.91-7.57-9.59-13.63-17.07-18.18-7.47-4.54-16.33-6.82-26.56-6.82-15.08,0-28.61,5-40.59,15-11.98,10-21,22.95-27.06,38.86h117.13v-4.32Z"/>
</svg>